<svg width="39" height="39" viewBox="0 0 39 39" fill="none" xmlns="http://www.w3.org/2000/svg">
<path d="M35.2703 8.03152C34.7094 7.26166 34.0934 6.53358 33.4269 5.85301C33.3795 5.80532 33.3346 5.75793 33.2872 5.71024C31.1807 3.60163 28.6192 2.00376 25.799 1.03937V26.6181C25.7991 27.4755 25.6302 28.3246 25.3021 29.1167C24.974 29.9089 24.4931 30.6287 23.8868 31.2349C23.2805 31.8413 22.5607 32.3223 21.7686 32.6503C20.9764 32.9783 20.1274 33.1472 19.27 33.1472H15.3779V38.5627C16.7326 38.8517 18.114 38.9975 19.4992 38.9975C23.0962 38.9978 26.6232 38.0033 29.6901 36.1239C32.757 34.2445 35.2442 31.553 36.8765 28.3479C38.5089 25.1427 39.2227 21.5483 38.9393 17.9626C38.656 14.3767 37.3861 10.9393 35.2703 8.03029V8.03152Z" fill="#E3DEC1"/>
<path d="M19.4992 3.23512e-09C15.9024 0.000342519 12.3757 0.995454 9.30914 2.87529C6.24264 4.75513 3.75575 7.44645 2.12353 10.6516C0.491304 13.8568 -0.22267 17.451 0.060562 21.0367C0.343793 24.6224 1.6132 28.0599 3.72839 30.969C4.29059 31.7386 4.90759 32.4666 5.57459 33.1472C5.62044 33.1934 5.66536 33.2395 5.71121 33.2888C7.81732 35.3971 10.3781 36.9953 13.1972 37.9609V12.3797C13.198 10.6481 13.8863 8.98775 15.111 7.76363C16.3356 6.53951 17.9963 5.85183 19.7278 5.85183H23.6199V0.436318C22.2656 0.146225 20.8843 -2.51156e-05 19.4992 3.23512e-09Z" fill="#E3DEC1"/>
</svg>
